# AST/ASF file generated using VICON BodyLanguage
# -----------------------------------------------
:version 1.10
:name VICON
:units
  mass 1.0
  length 0.45
  angle deg
:documentation
   .ast/.asf automatically generated from VICON data using
   VICON BodyBuilder and BodyLanguage model FoxedUp or BRILLIANT.MOD
:root
   order TX TY TZ RX RY RZ
   axis XYZ
   position 0 0 0  
   orientation 0 0 0 
:bonedata
  begin
     id 1 
     name lhipjoint
     direction 0.57768 -0.667037 0.470475 
     length 2.36008 
     axis 0 0 0  XYZ
  end
  begin
     id 2 
     name lfemur
     direction 0.34202 -0.939693 0  
     length 6.97235  
     axis 0 0 20  XYZ
    dof rx ry rz
    limits (-160.0 20.0)
           (-70.0 70.0)
           (-60.0 70.0)
  end
  begin
     id 3 
     name ltibia
     direction 0.34202 -0.939693 0   
     length 6.93428   
     axis 0 0 20   XYZ
    dof rx
    limits (-10.0 170.0)
  end
  begin
     id 4 
     name lfoot
     direction 0.133018 -0.365463 0.921272   
     length 2.18603   
     axis -90 7.62852e-016 20   XYZ
    dof rx rz
    limits (-45.0 90.0)
           (-70.0 20.0)
  end
  begin
     id 5 
     name ltoes
     direction 1.53519e-011 -4.22055e-011 1   
     length 1.07924   
     axis -90 7.62852e-016 20   XYZ
    dof rx
    limits (-90.0 20.0)
  end
  begin
     id 6 
     name rhipjoint
     direction -0.577712 -0.667019 0.470462   
     length 2.36015  
     axis 0 0 0  XYZ 
  end
  begin
     id 7 
     name rfemur
     direction -0.34202 -0.939693 0   
     length 6.71195   
     axis 0 0 -20   XYZ
    dof rx ry rz
    limits (-160.0 20.0)
           (-70.0 70.0)
           (-70.0 60.0)
  end
  begin
     id 8 
     name rtibia
     direction -0.34202 -0.939693 0   
     length 7.04592   
     axis 0 0 -20   XYZ
    dof rx
    limits (-10.0 170.0)
 end
 begin
     id 9 
     name rfoot
     direction -0.113796 -0.312651 0.943027   
     length 2.03846  
     axis -90 -7.62852e-016 -20   XYZ
    dof rx rz
    limits (-45.0 90.0)
           (-20.0 70.0)
  end
  begin
     id 10 
     name rtoes
     direction -1.53586e-011 -4.218e-011 1   
     length 1.01562   
     axis -90 -7.62852e-016 -20   XYZ
    dof rx
    limits (-90.0 20.0)
  end
  begin
     id 11 
     name lowerback
     direction -0.0417299 0.991937 -0.119667   
     length 2.05257   
     axis 0 0 0   XYZ
    dof rx ry rz
    limits (-20.0 45.0)
           (-30.0 30.0)
           (-30.0 30.0)
  end
  begin
     id 12 
     name upperback
     direction -0.00017666 0.999999 0.00105178   
     length 2.05693   
     axis 0 0 0   XYZ
    dof rx ry rz
    limits (-20.0 45.0)
           (-30.0 30.0)
           (-30.0 30.0)
  end
  begin
     id 13 
     name thorax
     direction 0.0185169 0.998203 0.0569866   
     length 2.0932   
     axis 0 0 0   XYZ
    dof rx ry rz
    limits (-20.0 45.0)
           (-30.0 30.0)
           (-30.0 30.0)
  end
  begin
     id 14 
     name lowerneck
     direction -0.0212406 0.982645 0.184277   
     length 1.72509   
     axis 0 0 0   XYZ
    dof rx ry rz
    limits (-20.0 45.0)
           (-30.0 30.0)
           (-30.0 30.0)
  end
  begin
     id 15 
     name upperneck
     direction 0.00528579 0.965323 -0.261004   
     length 1.76294   
     axis 0 0 0   XYZ
    dof rx ry rz
    limits (-20.0 45.0)
           (-30.0 30.0)
           (-30.0 30.0)
  end
  begin
     id 16
     name head
     direction 0.00695421 0.994078 -0.108445  
     length 1.78678  
     axis 0 0 0   XYZ
    dof rx ry rz
    limits (-20.0 45.0)
           (-30.0 30.0)
           (-30.0 30.0)
  end
  begin
     id 17 
     name lclavicle
     direction 0.97277 0.211305 -0.095232  
     length 3.84823  
     axis 0 0 0   XYZ
    dof ry rz
    limits (-20.0 10.0)
           (0.0 20.0)
  end
  begin
     id 18 
     name lhumerus
     direction 1 -4.48957e-011 -1.98313e-027   
     length 4.97185   
     axis 180 -30 -90   XYZ
    dof rx ry rz
    limits (-60.0 90.0)
           (-90.0 90.0)
           (-90.0 90.0)
  end
  begin
     id 19
     name lradius
     direction 1 -4.4898e-011 7.31063e-027   
     length 3.35811   
     axis 180 -30 -90   XYZ
    dof rx
    limits (-10.0 170.0)
  end
  begin
     id 20
     name lwrist
     direction 1 -4.48938e-011 9.95048e-027   
     length 1.67905   
     axis -8.75986e-015 90 90   XYZ
    dof ry
    limits (-180.0 0.0)
 end
  begin
     id 21 
     name lhand
     direction 1 -4.4901e-011 1.9901e-026   
     length 0.622776   
     axis -1.26985e-014 90 90   XYZ
    dof rx rz
    limits (-90.0 90.0)
           (-45.0 45.0)
  end
  begin
     id 22 
     name lfingers
     direction 1 -4.48961e-011 3.98019e-026   
     length 0.502098   
     axis -2.5397e-014 90 90   XYZ
    dof rx
    limits (0.0 90.0)
  end
  begin
     id 23
     name lthumb
     direction 0.707107 -6.34933e-011 0.707107   
     length 0.720915   
     axis -90 45 2.85299e-015   XYZ
    dof rx rz
    limits (-45.0 45.0)
           (-45.0 45.0)
  end
  begin
     id 24 
     name rclavicle
     direction -0.990867 0.133739 -0.0172226   
     length 3.78845  
     axis 0 0 0   XYZ 
    dof ry rz
    limits (-10.0 20.0)
           (-20.0 0.0)
  end
  begin
     id 25 
     name rhumerus
     direction -1 -4.48972e-011 -1.99267e-027  
     length 4.96493   
     axis 180 30 90   XYZ
    dof rx ry rz
    limits (-90.0 60.0)
           (-90.0 90.0)
           (-90.0 90.0)
  end
  begin
     id 26 
     name rradius
     direction -1 -4.48969e-011 8.96093e-027   
     length 3.34929   
     axis 180 30 90   XYZ
    dof rx
    limits (-10.0 170.0)
  end
  begin
     id 27 
     name rwrist
     direction -1 -4.48953e-011 9.95048e-027   
     length 1.67464   
     axis -8.75986e-015 -90 -90   XYZ
    dof ry
    limits (-180.0 0.0)
  end
  begin
     id 28
     name rhand
     direction -1 -4.49001e-011 1.9901e-026   
     length 0.638041   
     axis -1.26985e-014 -90 -90   XYZ
    dof rx rz
    limits (-90.0 90.0)
           (-45.0 45.0)
  end
  begin
     id 29
     name rfingers
     direction -1 -4.48967e-011 3.98019e-026   
     length 0.514405   
     axis -2.5397e-014 -90 -90   XYZ
    dof rx
    limits (0.0 90.0)
  end
  begin
     id 30
     name rthumb
     direction -0.707107 -6.34904e-011 0.707107   
     length 0.738586   
     axis -90 -45 -2.85299e-015   XYZ
    dof rx rz
    limits (-45.0 45.0)
           (-45.0 45.0)
  end
:hierarchy
  begin
    root lhipjoint rhipjoint lowerback
    lhipjoint lfemur
    lfemur ltibia
    ltibia lfoot
    lfoot ltoes
    rhipjoint rfemur
    rfemur rtibia
    rtibia rfoot
    rfoot rtoes
    lowerback upperback
    upperback thorax
    thorax lowerneck lclavicle rclavicle
    lowerneck upperneck
    upperneck head
    lclavicle lhumerus
    lhumerus lradius
    lradius lwrist
    lwrist lhand lthumb
    lhand lfingers
    rclavicle rhumerus
    rhumerus rradius
    rradius rwrist
    rwrist rhand rthumb
    rhand rfingers
  end

#!OML:ASF E:\Mandelcareful walks\Project 1\Capture day 1\Session 1\Subject1.ASF
:FULLY-SPECIFIED
:DEGREES
264
root -20.0732 15.5706 -1.17956 -195.454 67.6422 152.611
lowerback 29.2049 -2.18032 -5.56826
upperback 7.14743 -3.52166 -0.0656509
thorax -7.64144 -1.23809 4.29422
lowerneck -25.5315 -11.5046 -12.5646
upperneck 26.0116 -13.1618 6.529
head 14.5306 -5.97067 1.98074
rclavicle 4.17448e-014 -6.32135e-014
rhumerus -8.47198 -0.301082 -82.5491
rradius 53.78
rwrist -23.5873
rhand -17.6479 -26.8481
rfingers 7.12502
rthumb 8.61018 -56.6525
lclavicle 4.17448e-014 -6.32135e-014
lhumerus -17.7091 -23.6935 93.1092
lradius 49.2321
lwrist 19.1766
lhand -26.4016 -15.4353
lfingers 7.12502
lthumb 0.157904 14.5444
rfemur -48.6514 -17.8814 11.7154
rtibia 56.7075
rfoot -16.5935 -0.0952527
rtoes 12.4571
lfemur -4.15109 12.1222 -17.6733
ltibia 31.6554
lfoot -27.4698 14.7999
ltoes -19.4076
265
root -20.0086 15.565 -1.15967 -195.587 67.6728 152.319
lowerback 29.1736 -2.25659 -5.40939
upperback 7.12918 -3.571 -0.0163842
thorax -7.6503 -1.26442 4.27408
lowerneck -25.5777 -11.424 -12.3968
upperneck 26.0938 -13.0652 6.39285
head 14.538 -5.9293 1.92142
rclavicle 3.97569e-014 1.03368e-014
rhumerus -8.58387 -0.432096 -82.4759
rradius 53.7625
rwrist -23.619
rhand -17.736 -27.0282
rfingers 7.12502
rthumb 8.52514 -56.8361
lclavicle 3.97569e-014 1.03368e-014
lhumerus -17.3923 -24.1998 93.0315
lradius 50.0639
lwrist 18.8728
lhand -26.8231 -15.4923
lfingers 7.12502
lthumb -0.249214 14.4873
rfemur -48.7791 -17.6996 11.7471
rtibia 57.103
rfoot -17.1412 -0.151988
rtoes 12.7016
lfemur -3.75765 12.0296 -17.5972
ltibia 31.101
lfoot -27.6477 14.7002
ltoes -19.0026
266
root -19.9713 15.5473 -1.15524 -196.291 68.4768 151.197
lowerback 29.0241 -2.08982 -5.32896
upperback 7.05494 -3.35718 -0.0631993
thorax -7.69472 -1.17049 4.10074
lowerneck -25.7805 -11.2664 -12.2368
upperneck 26.1869 -12.829 6.2349
head 14.5655 -5.82888 1.88031
rclavicle 6.40087e-014 -2.78299e-015
rhumerus -8.55931 -0.567915 -82.4707
rradius 53.7113
rwrist -23.6677
rhand -17.7261 -26.9887
rfingers 7.12502
rthumb 8.53465 -56.7962
lclavicle 6.40087e-014 -2.78299e-015
lhumerus -16.9395 -24.441 92.8365
lradius 50.7552
lwrist 18.8365
lhand -27.1531 -15.9294
lfingers 7.12502
lthumb -0.567942 14.0495
rfemur -49.5555 -17.0454 11.8758
rtibia 57.4596
rfoot -17.5119 0.0524404
rtoes 12.7151
lfemur -3.66298 12.3648 -17.8283
ltibia 30.6384
lfoot -27.9087 14.976
ltoes -18.2788
267
root -19.8994 15.5337 -1.13083 -196.6 68.3101 150.847
lowerback 29.1175 -2.21945 -5.43086
upperback 7.07023 -3.53833 0.0489061
thorax -7.68764 -1.25286 4.34875
lowerneck -26.1434 -11.0337 -12.0831
upperneck 26.4482 -12.4091 5.90496
head 14.6663 -5.66932 1.80619
rclavicle -5.84427e-014 2.38542e-014
rhumerus -8.58848 -0.587309 -82.4764
rradius 53.7086
rwrist -23.6637
rhand -17.6362 -26.628
rfingers 7.12502
rthumb 8.62146 -56.4319
lclavicle -5.84427e-014 2.38542e-014
lhumerus -16.6491 -24.3291 92.6436
lradius 51.5537
lwrist 18.8032
lhand -27.3904 -16.3096
lfingers 7.12502
lthumb -0.797162 13.6686
rfemur -49.4458 -17.0152 11.778
rtibia 57.8453
rfoot -18.3352 -0.0289118
rtoes 12.3026
lfemur -3.1887 12.1776 -17.77
ltibia 30.1454
lfoot -27.7406 15.0461
ltoes -18.9848
268
root -19.8337 15.515 -1.11194 -197.029 68.3186 150.248
lowerback 29.0905 -2.25164 -5.43923
upperback 6.98121 -3.59429 0.0642587
thorax -7.76818 -1.27899 4.39159
lowerneck -26.2592 -10.7356 -11.8113
upperneck 26.7439 -11.961 5.54024
head 14.7206 -5.49651 1.7157
rclavicle 1.98785e-015 -6.75868e-015
rhumerus -8.87534 -0.827931 -82.5029
rradius 53.6841
rwrist -23.5933
rhand -17.7435 -26.202
rfingers 7.12502
rthumb 8.51792 -56.0102
lclavicle 1.98785e-015 -6.75868e-015
lhumerus -16.5957 -24.3155 92.436
lradius 52.3205
lwrist 18.8623
lhand -27.6895 -16.5727
lfingers 7.12502
lthumb -1.08601 13.4043
rfemur -49.5616 -16.8837 11.6756
rtibia 58.251
rfoot -18.9657 -0.0584678
rtoes 12.1289
lfemur -2.8743 12.0391 -17.8562
ltibia 29.7008
lfoot -27.6466 15.3388
ltoes -19.9074
269
root -19.7704 15.4983 -1.09492 -197.189 68.412 149.871
lowerback 28.9386 -2.23827 -5.29266
upperback 6.86089 -3.5521 0.0676904
thorax -7.84704 -1.26414 4.29483
lowerneck -26.2539 -10.3081 -11.3516
upperneck 27.0571 -11.3827 5.07309
head 14.7264 -5.26632 1.58803
rclavicle 1.15295e-014 6.36111e-015
rhumerus -9.32376 -1.27318 -82.5007
rradius 53.791
rwrist -23.7009
rhand -17.7269 -26.1731
rfingers 7.12502
rthumb 8.53388 -55.9806
lclavicle 1.15295e-014 6.36111e-015
lhumerus -16.5906 -24.4556 92.1995
lradius 52.9254
lwrist 19.0984
lhand -28.1225 -16.7083
lfingers 7.12502
lthumb -1.50425 13.2661
rfemur -49.764 -16.687 11.6994
rtibia 58.657
rfoot -19.5907 -0.102994
rtoes 11.8632
lfemur -2.60453 11.9111 -17.8595
ltibia 29.2024
lfoot -27.6529 15.5472
ltoes -20.6252
